<?xml version="1.0" encoding="UTF-8"?>
<!DOCTYPE svg PUBLIC "-//W3C//DTD SVG 1.1//EN" "http://www.w3.org/Graphics/SVG/1.1/DTD/svg11.dtd">
<!-- Creator: CorelDRAW 2020 (64-Bit) -->
<svg xmlns="http://www.w3.org/2000/svg" xml:space="preserve" width="33.0728mm" height="33.0728mm" version="1.1" style="shape-rendering:geometricPrecision; text-rendering:geometricPrecision; image-rendering:optimizeQuality; fill-rule:evenodd; clip-rule:evenodd"
viewBox="0 0 3307.28 3307.28"
 xmlns:xlink="http://www.w3.org/1999/xlink"
 xmlns:xodm="http://www.corel.com/coreldraw/odm/2003">
 <defs>
  <style type="text/css">
   <![CDATA[
    .fil0 {fill:#ffe4c4}
   ]]>
  </style>
 </defs>
 <g id="Слой_x0020_1">
  <metadata id="CorelCorpID_0Corel-Layer"/>
  <path class="fil0" d="M1135.55 549.19l-29.41 37.44c-35.39,-14.43 -183.36,-56.23 -219.99,-58.97 -47.99,-3.59 -68.35,42.25 -32.33,70.9 21.57,17.16 70.42,38.47 76.73,63.68 -17.77,-0.09 -93.34,-24.54 -123.5,-29.46 -128.39,-20.93 -245.73,32.86 -351.77,100.93 -60.6,38.91 -131.68,80.12 -198.69,105.61 -92.26,35.11 -165.49,37.17 -244.33,58 301.39,33 492.71,-178.34 727.09,-192.06 123.23,-7.22 239.15,58.67 335.74,128.57 14.88,10.76 52.27,42.29 66.22,48.2 30.98,13.13 63.16,-18.24 50.69,-50.66 -12.96,-33.74 -93.67,-108.36 -98.19,-134.93 45.68,7.4 135.63,144.18 197.04,108.46 62.93,-36.6 -13.57,-186.81 -43.35,-232.24 -56.6,-86.35 -119.32,-111.59 -221.36,-108.6 -67.99,1.98 -105.65,35.79 -17.87,47.55 32.53,4.36 107.43,9.72 127.28,37.58zm76.95 2166.31l26.09 7.54 7.6 38.44c-19.79,-12.87 -24.33,-29.62 -33.69,-45.98zm1585.47 -1857.78c-6.06,-67.18 43.85,-148.1 -47.86,-304.79 -51.28,-87.63 -130.13,-138.61 -163.31,-221.08 -36.63,-91.01 -103.13,-150.78 -193.14,-187.28 -50.19,-20.35 -299.34,-72.04 -327.87,-39.59 7.67,18 96.91,22.64 121.06,26.63 41.12,6.78 81.63,15.37 120.53,27.52 39.93,12.45 176.86,71.45 182.29,119.04l-104.52 -55.69c50.21,48.97 96.25,94.16 145.22,140.34 35.21,33.22 47.25,199.95 21.39,240.98 -55.5,-13.72 -127.97,-110.54 -169.11,-152.41 -24.24,-24.66 -51.21,-80.71 -79.29,-78.86 -66.83,4.38 -18.57,81.85 -31.66,100.43 -15.3,-1.48 -55.31,-60.91 -66.79,-76.14 -53.18,-70.46 -25.67,-41.48 -91.32,-35.7 -60.12,-27.72 -148.87,-244.63 -218.86,-203.93l-13.81 40.79c-19.82,-5.43 -106.47,-113.21 -269.89,-149.5 -82.03,-18.21 -293.53,-10.21 -354.09,41.63 47.57,4.63 235.54,-103.18 460.6,42.09 81.1,52.36 242.64,244.31 228.97,339.04 -49.06,3.07 -182.97,-32.1 -230,-8.51 11.85,6.96 131.11,17.43 158.57,22.84 220.01,43.39 464.71,160.04 656.7,273.06 57.67,33.94 177.15,137.53 215.81,154.67 3,7.77 90.86,83.9 105.18,94.73 40.94,30.93 156.74,164.32 186.71,210.67 14.65,22.64 64.04,118.28 82.55,121.47 41.39,-44.89 -10.88,-186.3 -43.07,-233.08 -69.1,-100.35 -214.44,-530.19 -320.76,-584.39 25.04,57.64 80.26,126.61 110.82,198.51 14.31,33.69 81.91,209.68 70.99,228.92l-142.04 -92.41zm-2393.64 242.77c51.25,-41.44 138.33,-68 203.66,-69.26 51.41,-0.99 173.79,37.53 186.26,85.2l-389.92 -15.94zm2013.36 1292.81c150.11,-177.66 312.66,-322.19 395.26,-548.34 180.51,-494.17 -213.21,73.74 -276.7,167.15 -227.97,335.42 -476.23,889.33 -550.55,1295.72 -2.01,11.06 -3.95,22.04 -5.71,32.88 1.2,-9.78 3.15,-20.82 5.71,-32.88 24.34,-114.44 104.77,-320.9 141.54,-416.12 98.91,-256.08 258.78,-549.99 416.6,-774.93 28.9,-41.18 245.25,-320.4 263.34,-327.17 3.93,62.53 -129.34,270.18 -169.73,327.85 -40.63,58.03 -202.79,239.41 -219.76,275.84zm-1013.11 -2106.71c1.86,1.29 233.26,34.89 272.49,46.54 41.18,12.24 78.36,25.97 117.9,42.66 18.91,7.99 97.06,52.83 107.98,51.72 14.26,-62.71 -128.2,-205.55 -181.2,-172.54 -40.72,25.37 -6.53,21.29 -67.83,12.65 -51.92,-7.32 -232.14,-12.78 -249.34,18.97zm-588.21 636.69c-28.41,-4.6 -74.22,-2.86 -61.91,-40.48l156.74 13.85 -5.85 38.35c-19.03,2.68 -66.83,-8.12 -88.98,-11.72zm-553.01 417.91c18.04,-51.96 4.23,-74.18 41,-137.22 16,-27.48 61.13,-85.74 87.87,-94.51 42.91,-14.07 252.7,56.05 275.07,81.41l-73.74 24.28c17,55.42 216.53,23.6 253.51,32.55 8.95,46.93 -15.78,168.71 -45.44,204.35 -40.61,48.76 28.23,121.54 56.66,164.53 85.36,129.06 83.4,258.22 106.67,399.46 10.49,-42.79 -11.92,-293.62 -21.48,-353.81 -7.53,-47.39 -25.88,-97.53 -52.09,-137.79 -24.31,-37.33 -67.54,-86.3 -58.11,-123.71 6.37,-25.27 25.82,-147.43 34.17,-157.39 18.17,-21.71 62.61,-17.76 108.19,-86.45 59.65,-89.91 17.84,-39.82 99.09,-95.05 50.81,-34.53 81.94,-51.48 56.42,-119.66 -17.46,-46.66 -38.08,-91.5 -91.98,-90.45 -182.29,3.55 -216.91,-115.81 -467.54,28 -75.76,43.47 -151.21,112.89 -197.23,187.39 -62.87,101.77 -121.42,141.05 -111.04,274.07zm1114.37 1333.12l26.98 -17.31c19.01,16.84 25.11,34.64 23.04,59.1l-31.11 11.9c-6.59,-9.4 -19.32,-43.21 -18.91,-53.69zm-3.1 -279.05c-15.96,-42.27 -38.42,-196.16 -45.6,-248.08 -8.86,-64.04 -20.04,-190.06 37.09,-237.11 34.55,-15.51 139.46,74.66 180.57,91.39 40.49,16.49 52.28,0.99 77.07,6.68 -0.59,24.9 -69.92,68.27 -94.15,69.09 -43.45,1.47 -90.46,2.24 -123.48,38.44 -26.73,29.3 -6.05,37.24 -2.13,59.95 2.7,15.6 -5.52,55.04 -8.29,73.04 -2.97,19.4 -18.18,141.01 -21.08,146.6zm922.95 -554.92c-19.67,-40.05 52.43,-175.28 78.69,-212.26 24.43,-34.4 112.75,-145.08 145.68,-153.95 0.54,47.69 -183.47,332.37 -224.37,366.21zm-148.17 -665.55c-66.23,-21.46 -243.82,-145.32 -231.46,-217.45 133.54,-15.05 311.64,157.28 518.72,208.96 30.47,7.6 203.03,28.5 209.1,33.39l2.78 5.02c-220.65,122.85 -126.38,94.54 -234.23,47.41 -78.64,-34.35 -180,-49.8 -264.91,-77.33zm205.29 -57.45c-86.57,-33.8 -388.99,-200.02 -461.69,-172.22 -34.47,79.71 207.31,282.82 263.36,336.77 53.15,51.16 112.62,98.59 131.05,173.34 16.61,67.43 5.13,64.21 -18.14,120.87 -7.55,18.39 -29.85,99.89 -41.98,104.93 -1.55,-1.23 -85.62,-223.36 -113.12,-264.06 -47.46,-70.19 -108.84,-152.06 -174.8,-205.4 -126.32,-102.13 -185.77,-159.87 -345.74,-224.73 -23.34,-9.47 -143.11,-40.22 -146.52,-42.81 0.23,-3.89 44.04,-77.95 50.88,-96.74 13.66,-37.53 24.58,-79.98 33.11,-119.06 15.39,-70.58 -5.39,-62.82 48.8,-103.52 32.02,-24.07 20.32,-88.35 11.82,-121.84 -19.76,-77.77 -69.75,-131.85 -144.85,-159.37 -49.88,-18.28 -217.56,-20.94 -245.52,17.56 16.9,12.33 140.54,-6.75 212.7,32.21 38.45,20.75 51.87,56.34 -6.37,35.94 -55.93,-19.6 -37.74,34.19 -86.15,6.55 -61.43,-35.1 -139.71,-32.28 -208.19,-37.66 -18.07,-1.43 -197.84,9.66 -207.86,13.58 74.04,20.72 202.93,-5.92 344.31,69.96 161.08,86.43 111.43,206.79 154.56,260.83l39.69 5.08c-17,83.84 -59.12,107.57 -129.59,143.94 -42.65,21.99 -141.82,98.91 -106.58,154.91 14.28,-10.92 42.05,-87.21 95.75,-74.03 6.57,43.67 -18.28,131.79 30.26,174.79l34.98 -37.81c52.18,19.86 67.43,31.92 130.51,47.74 31,7.77 113.08,37.68 133.63,39.96 -25.01,-13.35 -150.1,-113.62 -133.44,-149.72 36.77,-18.1 172.07,90.95 199.23,121.86 30.25,34.42 116.48,161.72 122.2,201.08l-96.25 -122.55c16.21,43.35 76.79,121.14 101.63,182.53 21.83,53.95 58.68,192.1 31.26,241.79l-34.42 -22.48c-33.52,51.28 -12.11,103.5 -54.84,156.4 -18.43,22.8 -102.96,88.24 -131.16,76.79l88.92 -230.19c-31.17,50.81 -67.65,137.94 -120.96,167.72 -38.14,21.31 -83.53,11.57 -124.26,6.22 -62.51,-8.21 -87.5,27.92 -110.27,25.04 -18.01,-26.3 -17,-115.96 -8.39,-147.25 18.83,-68.56 -25.64,-95.38 6.56,-118.54l10.94 30.19c17.18,-43.59 38.12,-119.83 4.45,-159.98 -21.72,11.91 -49.61,39.3 -74.64,21.4 4.15,-23.32 60.71,-41.08 68.72,-124.5 6.31,-65.57 -19.84,-94.82 -41.66,-143.26 8.18,113.13 58.55,132.72 -56.46,201.12 -30.67,18.24 -139.67,123.71 -122.31,160.07 26.56,9.66 66.65,-52.81 124.18,-1.54 1.26,20.45 -27.75,54.98 -33.24,76.63 -11.81,46.62 35.28,37.44 54.6,53.52 21.72,101.23 -11.83,278.22 8.65,397.42 13.22,77 20.06,99.15 14.28,179.6 -1.93,26.81 -27.78,166.63 -27.1,171.07 27.03,26.68 21.9,-9.72 41.99,42.51 9.42,24.5 23.84,24.01 31.74,49.34 -60.08,44.96 -30.98,-38.92 -113.34,-21.14 -18.92,4.09 -44.43,16.53 -58.21,30.76 -10,10.32 -10.23,18.28 -22.11,24.72 -17.11,9.26 -14.35,-4.22 -29.92,11.98 -38.77,53.47 57.42,142.02 83.31,179.68 -41.51,3.05 -114.98,-4.4 -149.01,-26.25 -11.41,-7.34 -85.28,-76.58 -88.95,-84.42 28.19,57.78 99.6,93.97 128.56,141.82 38.53,63.7 145.97,58.38 209.63,48.56 113.61,-17.53 103.26,-49.53 175.58,-98.73 37.83,-25.73 40.97,-37.36 58.06,-77.28 15.72,-36.76 56.08,-18.91 30.99,-88.92 -20,-55.79 -90.79,-135.66 -47.3,-193.58 38.87,-51.77 102.51,-290.31 184.31,-356.5 74.49,-60.29 85.76,-127.03 114.57,-155.15 28.12,3.94 122.43,166.44 136.67,198.7 120.8,273.85 46.88,632.63 22.53,904.19 40.41,-77.63 82.6,-423.81 92.21,-530.34 22.05,-244.29 28.78,-266.81 156.98,-473.25 79.85,-128.58 175.7,-248.55 251.76,-377.85 86.79,-147.51 52.46,-196.35 80.06,-228.02 24.67,-28.27 52.32,-54.12 86.37,-70.42 97.4,-46.68 33.5,-31.66 59.88,-87.24 29.91,-22.21 64.45,-0.13 97.34,-29.99 14.8,-13.44 49.5,-49.17 42.89,-67.31 -1.86,0.15 -96.87,38.72 -112.62,43.93 -69.61,23.01 -68.61,16.57 -139.77,12.83 -81.18,-4.28 -193.05,-23.22 -268.73,-52.78z"/>
 </g>
</svg>
