<?xml version="1.0" encoding="UTF-8"?>
<!DOCTYPE svg PUBLIC "-//W3C//DTD SVG 1.1//EN" "http://www.w3.org/Graphics/SVG/1.1/DTD/svg11.dtd">
<!-- Creator: CorelDRAW 2020 (64-Bit) -->
<svg xmlns="http://www.w3.org/2000/svg" xml:space="preserve" width="90mm" height="32mm" version="1.1" style="shape-rendering:geometricPrecision; text-rendering:geometricPrecision; image-rendering:optimizeQuality; fill-rule:evenodd; clip-rule:evenodd"
viewBox="0 0 9000 3200"
 xmlns:xlink="http://www.w3.org/1999/xlink"
 xmlns:xodm="http://www.corel.com/coreldraw/odm/2003">
 <defs>
  <style type="text/css">
   <![CDATA[
    .fil0 {fill:#2B2A29;fill-rule:nonzero}
   ]]>
  </style>
 </defs>
 <g id="Слой_x0020_1">
  <metadata id="CorelCorpID_0Corel-Layer"/>
  <path class="fil0" d="M4024.89 1402.18c3.66,41.84 -2.27,85.42 -17.86,130.8 -15.58,45.36 -36.87,90.04 -63.91,133.98 -27.02,43.96 -57.46,86.13 -91.37,126.54 -33.88,40.41 -66.87,76.9 -98.93,109.51 -36.64,38.29 -75.32,74.43 -116.1,108.46 -40.78,34.05 -83.12,67 -127.09,98.91 -37.59,27.64 -77.88,55.46 -120.95,83.46 -43.04,28.01 -88.14,53.7 -135.34,77.1 -47.15,23.38 -95.71,43.6 -145.64,60.62 -49.93,17.01 -100.52,28.7 -151.84,35.09 -32.05,4.25 -63.88,4.41 -95.48,0.53 -31.61,-3.91 -60.71,-13.66 -87.24,-29.25 -22,-14.88 -38.27,-32.08 -48.81,-51.58 -10.52,-19.5 -17.18,-40.23 -19.92,-62.21 -2.76,-21.98 -2.51,-44.3 0.67,-66.98 3.23,-22.68 8.04,-44.66 14.43,-65.92 14.67,-46.78 34.83,-92.35 60.48,-136.65 25.65,-44.31 54.49,-86.65 86.58,-127.06 32.97,-40.4 68.68,-79.06 107.15,-115.92 38.48,-36.87 79.71,-70.88 123.7,-102.08 38.45,-30.49 78.51,-58.47 120.21,-83.98 41.67,-25.55 85.88,-48.22 132.59,-68.08 21.98,-7.79 45.11,-15.59 69.4,-23.4 24.27,-7.79 48.78,-13.45 73.5,-17 4.58,-0.72 9.63,-1.25 15.14,-1.59 5.5,-0.36 10.05,0.17 13.73,1.59 3.65,1.43 2.51,3.37 -3.43,5.84 -5.99,2.5 -9.42,4.45 -10.3,5.85 -10.11,4.25 -19.49,8.17 -28.19,11.71 -8.7,3.55 -18.1,7.43 -28.15,11.69 -44.89,20.56 -87.96,43.96 -129.19,70.19 -41.2,26.22 -80.61,54.57 -118.16,85.06 -41.2,31.9 -80.36,65.74 -117.47,101.55 -37.1,35.8 -71.68,73.2 -103.76,112.18 -34.79,38.29 -67.32,78.35 -97.55,120.16 -30.22,41.83 -56.82,86.12 -79.7,132.93 -9.15,18.43 -17.63,39.33 -25.41,62.73 -7.78,23.4 -11.46,46.43 -10.99,69.12 0.45,22.69 6.64,43.24 18.54,61.66 11.9,18.44 32.98,31.21 63.22,38.3 29.29,7.78 59.31,9.2 89.98,4.26 30.7,-4.98 59.78,-12.07 87.24,-21.3 48.57,-16.29 94.15,-36.32 136.74,-60.07 42.62,-23.74 84.05,-49.45 124.36,-77.09 58.63,-38.28 119.77,-81.71 183.44,-130.27 63.65,-48.54 125.49,-100.48 185.47,-155.77 60.01,-55.29 114.99,-113.24 164.92,-173.85 49.92,-60.62 90.44,-122.46 121.59,-185.56 8.25,-15.59 15.35,-32.6 21.29,-51.05 5.94,-18.41 9.17,-36.68 9.64,-54.75 0.43,-18.08 -3,-35.45 -10.32,-52.11 -7.33,-16.66 -19.69,-31.36 -37.09,-44.11 -22.91,-15.61 -48.09,-26.07 -75.57,-31.38 -27.5,-5.32 -55.43,-7.63 -83.82,-6.91 -28.41,1.42 -56.56,4.6 -84.53,9.57 -27.92,4.94 -55.18,11.34 -81.74,19.15 -52.21,12.03 -102.84,26.92 -151.82,44.66 -49.01,17.72 -96.89,37.92 -143.59,60.6 -45.8,22.68 -88.17,47.14 -127.11,73.36 -38.94,26.23 -78.56,53.53 -118.87,81.88 -2.73,1.42 -5.71,3.01 -8.94,4.79 -3.19,1.76 -6.18,3.01 -8.93,3.72 -3.63,0.71 -4.32,-0.71 -2.06,-4.25 2.3,-3.56 3.45,-5.68 3.45,-6.38 18.33,-26.95 40.76,-52.47 67.34,-76.57 26.56,-24.09 53.58,-46.42 81.07,-66.99 41.2,-31.18 85.43,-58.66 132.58,-82.4 47.19,-23.76 96.88,-44.13 149.09,-61.14 52.23,-16.32 106.26,-28.2 162.13,-35.63 55.9,-7.45 111.31,-7.98 166.28,-1.61 26.56,3.57 53.1,8.89 79.7,15.98 26.56,7.08 50.38,18.77 71.45,35.09 21.06,15.57 37.34,34.01 48.78,55.29 11.46,21.26 18.53,43.58 21.29,66.98zm3757.37 564.93l0.19 -0.08 0.28 -0.25 0.28 -0.26 0.3 -0.27 0.29 -0.26 0.13 -0.11 0.17 -0.16 0.28 -0.26 0.29 -0.27 0.3 -0.26 0.3 -0.25 0 -0.02 0.29 -0.25 0.28 -0.26 0.3 -0.27 0.3 -0.26 0.17 -0.16 0.12 -0.11 0.3 -0.26 0.29 -0.27 0.3 -0.25 0.3 -0.26 0.04 -0.06 0.25 -0.21 0.28 -0.26 0.3 -0.27 0.3 -0.26 0.23 -0.2 0.06 -0.05 0.3 -0.27 0.29 -0.26 0.3 -0.27 0.3 -0.26 0.11 -0.09 0.18 -0.16 0.31 -0.27 0.3 -0.26 0.3 -0.27 0.26 -0.23 0.03 -0.01 0.3 -0.27 0.3 -0.26 0.29 -0.27 0.3 -0.25 0.15 -0.14 0.14 -0.12 0.32 -0.27 0.29 -0.25 0.3 -0.26 0.29 -0.27 0.04 -0.03 0.26 -0.23 0.31 -0.25 0.3 -0.27 0.29 -0.26 0.21 -0.17 0.09 -0.08 0.31 -0.27 0.3 -0.25 0.3 -0.26 0.31 -0.27 0.07 -0.06 0.22 -0.19 0.3 -0.26 0.31 -0.27 0.3 -0.25 0.26 -0.21 0.05 -0.05 0.3 -0.25 0.31 -0.26 0.29 -0.27 0.3 -0.25 0.14 -0.11 0.17 -0.15 0.3 -0.25 0.31 -0.27 0.3 -0.25 0.31 -0.26c29.77,-25.18 61.15,-48.03 94.13,-68.59 19.24,-12.03 39.16,-23.38 59.77,-34.01 20.62,-10.65 42.83,-18.8 66.64,-24.46 0.92,0 2.99,-0.38 6.19,-1.08 3.19,-0.7 6.42,-1.06 9.61,-1.06 3.21,0 5.74,0.17 7.56,0.53 1.83,0.36 1.38,1.61 -1.38,3.73 -3.67,3.54 -7.55,6.37 -11.68,8.51 -4.11,2.12 -8.48,4.94 -13.05,8.49 -10.05,6.4 -19.47,13.11 -28.16,20.21 -8.69,7.11 -17.18,14.54 -25.43,22.33 -39.39,34.03 -75.34,69.82 -107.87,107.39 -32.5,37.58 -64.8,75.51 -96.86,113.79 13.75,-7.09 27.25,-14.18 40.53,-21.26 13.29,-7.09 26.34,-14.2 39.15,-21.28 25.66,-14.18 50.87,-28.18 75.59,-42.01 24.74,-13.82 48.98,-27.8 72.83,-41.99 2.74,-2.14 10.07,-7.08 21.98,-14.89 11.91,-7.79 25.86,-17.19 41.9,-28.18 16.04,-10.97 33.22,-22.85 51.52,-35.62 18.34,-12.75 36.21,-24.99 53.59,-36.68 17.41,-11.7 33.45,-22.51 48.09,-32.44 14.67,-9.93 25.67,-17.38 33.01,-22.32 1.81,-1.43 5.48,-3.91 10.98,-7.45 5.5,-3.55 11.67,-7.44 18.55,-11.69 6.87,-4.26 13.75,-8.15 20.61,-11.69 6.88,-3.56 12.12,-6.41 15.82,-8.53 1.81,-0.7 6.15,-2.29 13.04,-4.78 6.86,-2.48 10.76,-1.59 11.68,2.66 0,3.56 -1.39,7.09 -4.13,10.65 -2.76,3.54 -5.04,7.08 -6.88,10.63 -3.66,4.94 -7.09,9.73 -10.28,14.36 -3.23,4.59 -7.13,9.38 -11.69,14.35 -5.49,7.08 -17.42,20.89 -35.72,41.47 -18.34,20.54 -40.32,44.66 -65.97,72.29 -25.64,27.66 -52.43,56.54 -80.38,86.66 -27.94,30.15 -54.03,58.14 -78.32,84.02 -24.28,25.87 -44.66,47.32 -61.13,64.33 -16.5,17.01 -25.21,26.24 -26.11,27.64 -71.46,75.87 -147.73,148.88 -228.81,219.06 -81.04,70.18 -171.06,132.9 -270,188.21 -48.54,26.93 -99.17,51.58 -151.81,73.9 -52.69,22.32 -108.34,39.53 -166.96,51.57 -18.32,3.54 -37.12,6.73 -56.34,9.57 -19.24,2.84 -38.49,4.25 -57.71,4.25 -3.68,0 -8.93,0 -15.8,0 -6.88,0 -11.68,-1.06 -14.42,-3.19 -1.83,-1.4 1.35,-3.37 9.62,-5.85 8.24,-2.48 13.28,-4.07 15.1,-4.78 18.3,-3.54 36.41,-7.97 54.28,-13.28 17.86,-5.32 35.49,-10.82 52.9,-16.5 54.95,-17.72 107.39,-39.17 157.35,-64.31 49.9,-25.18 97.53,-52.64 142.88,-82.43 45.35,-29.78 88.85,-61.48 130.55,-95.17 41.67,-33.67 81.74,-67.51 120.23,-101.54 41.2,-36.15 80.61,-73.01 118.16,-110.6 37.57,-37.56 74.2,-76.21 109.94,-115.89 21.98,-22.7 43.27,-46.44 63.88,-71.24 20.61,-24.82 44.21,-51.75 70.77,-80.83 -23.8,15.61 -47.4,31.37 -70.77,47.31 -23.36,15.98 -46.95,32.08 -70.75,48.41 -20.17,14.16 -40.31,27.99 -60.48,41.46 -20.14,13.45 -40.75,26.58 -61.83,39.34 -5.5,3.54 -11.91,7.44 -19.25,11.7 -7.32,4.25 -15.1,7.79 -23.33,10.63 -8.25,2.85 -16.49,4.25 -24.76,4.25 -8.24,0 -16.02,-2.12 -23.33,-6.37 -10.09,-6.38 -15.14,-14.55 -15.14,-24.46 0,-9.92 1.39,-19.49 4.13,-28.71 5.51,-15.59 12.82,-30.67 21.98,-45.19 9.18,-14.53 19.69,-28.89 31.61,-43.07l0.25 -0.3 0.25 -0.31 0.27 -0.3 0.25 -0.29 0.11 -0.13 0.14 -0.17 0.26 -0.31 0.25 -0.3 0.25 -0.3 0.22 -0.24 0.05 -0.05 0.25 -0.31 0.24 -0.3 0.27 -0.3 0.25 -0.29 0.06 -0.08 0.19 -0.23 0.26 -0.3 0.25 -0.3 0.27 -0.29 0.17 -0.2 0.08 -0.1 0.26 -0.29 0.25 -0.32 0.27 -0.29 0.25 -0.3 0.01 -0.01 0.25 -0.28 0.25 -0.3 0.27 -0.3 0.26 -0.29 0.13 -0.16 0.12 -0.14 0.27 -0.3 0.24 -0.31 0.27 -0.29 0.23 -0.27 0.03 -0.03 0.25 -0.3 0.27 -0.29 0.26 -0.3 0.25 -0.29 0.1 -0.1 0.17 -0.2 0.26 -0.3 0.27 -0.29 0.25 -0.3 0.2 -0.22 0.06 -0.08 0.27 -0.29 0.26 -0.3 0.27 -0.29 0.25 -0.3 0.04 -0.05 0.22 -0.25 0.27 -0.29 0.26 -0.3 0.27 -0.29 0.14 -0.16 0.12 -0.14 0.27 -0.3 0.26 -0.29 0.27 -0.28 0.25 -0.3 0.01 0 0.27 -0.3 0.26 -0.29 0.27 -0.3 0.26 -0.29 0.1 -0.11 0.17 -0.19 0.26 -0.3 0.27 -0.29 0.26 -0.28 0.22 -0.25 0.05 -0.05 0.26 -0.3 0.27 -0.29 -0.08 0.04 -0.61 0.36 -0.61 0.36 -0.6 0.36 -0.61 0.36 -0.61 0.36 -0.61 0.36 -1.21 0.7 -0.61 0.36 -0.61 0.35 -0.61 0.36 -0.61 0.35 -0.59 0.35 -0.61 0.35 -0.59 0.36 -0.61 0.34c-12.83,7.45 -21.52,12.59 -26.11,15.42 -23.82,14.9 -47.62,29.78 -71.45,44.67 -23.82,14.89 -47.62,30.48 -71.46,46.78 -9.13,5.67 -18.06,11.71 -26.79,18.08 -8.7,6.38 -17.6,12.77 -26.8,19.15 -7.31,4.97 -15.09,9.21 -23.34,12.75 -8.26,3.53 -17.86,3.91 -28.86,1.07 -12.8,-3.54 -20.83,-8.85 -24.04,-15.96 -3.2,-7.09 -3.43,-14.89 -0.69,-23.38 2.75,-8.51 7.11,-16.85 13.05,-24.99 5.94,-8.15 11.24,-15.07 15.79,-20.73 9.2,-12.07 18.33,-23.4 27.5,-34.03 9.15,-10.63 18.78,-21.64 28.84,-32.99l7.24 -8.38c12.77,-14.72 25.62,-29.29 38.57,-43.73 20.01,-22.3 40.25,-44.28 60.68,-65.9 36.18,-38.29 72.16,-77.27 107.87,-116.96 10.09,-10.63 23.57,-24.83 40.53,-42.56 16.95,-17.7 35.28,-36.85 54.98,-57.41 19.67,-20.56 40.52,-42.01 62.49,-64.33 22,-22.32 43.07,-43.77 63.21,-64.33 -21.06,1.42 -43.95,3.19 -68.68,5.31 -24.75,2.14 -49.47,3.9 -74.21,5.32 -24.72,1.42 -48.56,2.67 -71.44,3.73 -22.9,1.06 -43.07,1.59 -60.45,1.59 -36.65,0 -55,-2.5 -55,-7.44 -0.89,-2.12 3.23,-4.61 12.36,-7.45 9.2,-2.84 22.01,-6.02 38.52,-9.56 47.61,-10.64 100.3,-18.8 157.99,-24.45 57.7,-5.69 114.97,-12.41 171.78,-20.22 16.47,-16.31 30.22,-30.13 41.21,-41.48 10.99,-11.32 17.87,-18.07 20.61,-20.2 35.73,-34.73 71.69,-69.46 107.85,-104.19 36.18,-34.75 74.89,-67.7 116.12,-98.9 0.92,-0.71 3.43,-2.49 7.54,-5.33 4.14,-2.82 8.25,-5.13 12.37,-6.9 4.13,-1.76 7.34,-2.29 9.61,-1.61 2.31,0.72 2.08,3.56 -0.68,8.51 -11.88,20.56 -24.93,40.06 -39.16,58.51 -14.18,18.42 -29.74,37.73 -46.7,57.94 -16.95,20.2 -35.5,41.82 -55.65,64.86 -20.16,23.04 -42.6,49.09 -67.33,78.14 29.31,-2.82 59.54,-5.47 90.68,-7.96 31.16,-2.48 62.76,-5.13 94.82,-7.99 85.19,-6.37 165.81,-12.56 241.82,-18.59 76.06,-6.02 154.81,-11.86 236.35,-17.55 31.17,-2.12 58.86,-3.89 83.13,-5.32 24.29,-1.4 45.11,-2.48 62.52,-3.2 35.73,-2.12 53.59,-2.12 53.59,0 0.92,0.72 -16.49,3.92 -52.22,9.58 -16.5,2.85 -36.85,5.86 -61.13,9.04 -24.29,3.19 -51.52,6.92 -81.78,11.16 -80.59,9.94 -158.68,19.67 -234.27,29.24 -75.57,9.57 -155.93,19.33 -241.15,29.26 -42.13,4.96 -83.13,9.57 -122.97,13.83 -39.85,4.25 -78.55,8.13 -116.1,11.69 -27.48,31.89 -51.99,59.89 -73.55,84 -21.49,24.1 -35.93,40.05 -43.27,47.84 -33.86,36.87 -68,73.2 -102.35,109.01 -34.34,35.79 -68.95,71.77 -103.72,107.92 -29.36,29.77 -58.2,59.39 -86.58,88.79 -28.42,29.43 -56.35,59.37 -83.85,89.86 32.1,-17.72 64.6,-34.92 97.58,-51.58 32.99,-16.65 66.42,-33.14 100.31,-49.45l0.3 -0.14 0.04 -0.03 0.24 -0.11 0.11 -0.04 0.18 -0.1 0.16 -0.07 0.14 -0.07 0.2 -0.09 0.1 -0.05 0.25 -0.12 0.03 -0.02 0.29 -0.14 0.02 0 0.28 -0.14 0.06 -0.03 0.22 -0.11 0.12 -0.04 0.18 -0.08 0.17 -0.08 0.12 -0.06 0.22 -0.11 0.08 -0.03 0.26 -0.13 0.02 -0.01 0.3 -0.13 0.03 -0.01 0.26 -0.13 0.08 -0.05 0.22 -0.09 0.12 -0.06 0.16 -0.08 0.19 -0.08 0.1 -0.04 0.24 -0.11 0.06 -0.03 0.28 -0.13 0.02 0 0.28 -0.14 0.04 -0.01 0.25 -0.13 0.1 -0.03 0.2 -0.09 0.14 -0.07 0.16 -0.07 0.18 -0.08 0.1 -0.05 0.25 -0.11 0.04 -0.03 0.3 -0.12 0.3 -0.13 0.04 -0.03 0.24 -0.11 0.1 -0.05 0.19 -0.07 0.16 -0.08 0.14 -0.05 0.2 -0.09 0.09 -0.05 0.25 -0.11 0.03 -0.01 0.3 -0.13 0.02 -0.01 0.28 -0.13 0.08 -0.03 0.21 -0.09 0.13 -0.05 0.15 -0.08 0.19 -0.08 0.11 -0.04 0.23 -0.1 0.07 -0.03 0.28 -0.12 0.01 0 0.3 -0.13 0.28 -0.12 0.09 -0.05 0.21 -0.08 0.14 -0.06 0.15 -0.06 0.19 -0.09 0.11 -0.04 0.23 -0.1 0.05 -0.02 0.29 -0.13 0 -0.01 0.3 -0.11 0.05 -0.03 0.25 -0.09 0.09 -0.05 0.19 -0.08 0.15 -0.06 0.14 -0.06 0.21 -0.1 0.09 -0.03 0.58 -0.23 0.01 -0.02 0.28 -0.11 0.06 -0.03 0.35 -0.14 0.18 -0.06 0.16 -0.08 0.13 -0.05 0.21 -0.09 0.08 -0.01 0.27 -0.13 0.03 0 0.29 -0.12 0.04 -0.02 0.24 -0.09 0.1 -0.05 0.2 -0.08 0.14 -0.06zm-6580.22 -1411.47l-27.57 35.12c-33.22,-13.53 -172,-52.75 -206.37,-55.32 -45.02,-3.37 -64.12,39.62 -30.32,66.51 20.23,16.09 66.05,36.09 71.97,59.73 -16.68,-0.07 -87.56,-23.02 -115.85,-27.62 -120.44,-19.64 -230.52,30.82 -329.99,94.67 -56.85,36.51 -123.53,75.15 -186.4,99.08 -86.54,32.92 -155.23,34.87 -229.19,54.4 282.72,30.96 462.2,-167.29 682.07,-180.17 115.6,-6.78 224.33,55.04 314.94,120.61 13.96,10.1 49.03,39.67 62.12,45.22 29.07,12.31 59.25,-17.12 47.56,-47.53 -12.17,-31.66 -87.88,-101.65 -92.12,-126.57 42.85,6.93 127.23,135.25 184.84,101.74 59.03,-34.33 -12.72,-175.23 -40.67,-217.86 -53.08,-81 -111.92,-104.67 -207.65,-101.88 -63.77,1.87 -99.09,33.57 -16.76,44.61 30.51,4.08 100.77,9.12 119.39,35.26zm72.19 2032.14l24.49 7.08 7.11 36.07c-18.57,-12.08 -22.81,-27.8 -31.6,-43.15zm1487.29 -1742.72c-5.69,-63.02 41.12,-138.93 -44.89,-285.91 -48.11,-82.2 -122.07,-130.02 -153.2,-207.39 -34.36,-85.37 -96.74,-141.46 -181.18,-175.69 -47.09,-19.08 -280.8,-67.58 -307.57,-37.13 7.2,16.88 90.91,21.23 113.56,24.97 38.58,6.36 76.58,14.43 113.06,25.81 37.47,11.7 165.92,67.03 171,111.69l-98.05 -52.25c47.11,45.92 90.3,88.32 136.24,131.66 33.02,31.16 44.32,187.55 20.06,226.04 -52.06,-12.86 -120.04,-103.69 -158.62,-142.96 -22.76,-23.15 -48.06,-75.72 -74.39,-73.99 -62.69,4.11 -17.42,76.78 -29.71,94.21 -14.35,-1.39 -51.87,-57.13 -62.65,-71.41 -49.88,-66.11 -24.06,-38.92 -85.67,-33.48 -56.4,-26.02 -139.64,-229.49 -205.29,-191.31l-12.96 38.26c-18.59,-5.09 -99.87,-106.2 -253.18,-140.24 -76.96,-17.09 -275.35,-9.57 -332.15,39.05 44.63,4.35 220.95,-96.79 432.06,39.48 76.1,49.12 227.63,229.19 214.8,318.05 -46.02,2.88 -171.64,-30.11 -215.76,-8 11.12,6.55 122.99,16.37 148.75,21.45 206.38,40.68 435.93,150.11 616.04,256.14 54.09,31.83 166.18,129.01 202.44,145.1 2.82,7.29 85.22,78.68 98.67,88.85 38.4,29.02 147.03,154.15 175.15,197.62 13.73,21.23 60.06,110.96 77.43,113.95 38.81,-42.1 -10.21,-174.77 -40.41,-218.64 -64.81,-94.13 -201.16,-497.37 -300.89,-548.21 23.49,54.07 75.29,118.78 103.95,186.23 13.44,31.59 76.85,196.69 66.61,214.74l-133.25 -86.69zm-2245.4 227.75c48.07,-38.88 129.76,-63.81 191.03,-64.99 48.25,-0.92 163.04,35.21 174.75,79.92l-365.78 -14.93zm1888.67 1212.73c140.81,-166.65 293.31,-302.23 370.78,-514.37 169.33,-463.58 -200,69.16 -259.56,156.8 -213.88,314.69 -446.82,834.4 -516.48,1215.64 -1.89,10.31 -3.69,20.57 -5.33,30.67 1.12,-9.13 2.95,-19.42 5.33,-30.67 22.79,-107.33 98.27,-301.17 132.8,-390.52 92.79,-240.21 242.76,-515.93 390.8,-726.93 27.11,-38.65 230.07,-300.56 247.03,-306.92 3.69,58.66 -121.34,253.43 -159.22,307.54 -38.11,54.45 -190.24,224.58 -206.15,258.76zm-950.38 -1976.24c1.75,1.2 218.81,32.72 255.62,43.66 38.63,11.48 73.51,24.35 110.6,40.02 17.73,7.5 91.06,49.55 101.3,48.51 13.38,-58.83 -120.26,-192.83 -169.99,-161.84 -38.19,23.79 -6.12,19.95 -63.63,11.86 -48.71,-6.87 -217.76,-12 -233.9,17.79zm-551.77 597.26c-26.65,-4.32 -69.63,-2.68 -58.08,-37.97l147.04 13 -5.48 35.96c-17.87,2.52 -62.71,-7.61 -83.48,-10.99zm-518.77 392.02c16.93,-48.73 3.96,-69.57 38.46,-128.72 15.02,-25.77 57.35,-80.42 82.43,-88.64 40.25,-13.2 237.06,52.57 258.03,76.35l-69.17 22.79c15.95,51.99 203.13,22.12 237.81,30.54 8.39,44.02 -14.79,158.25 -42.63,191.69 -38.08,45.73 26.48,114.01 53.17,154.35 80.06,121.06 78.22,242.21 100.06,374.71 9.84,-40.14 -11.19,-275.44 -20.15,-331.91 -7.07,-44.44 -24.27,-91.48 -48.87,-129.25 -22.81,-35.03 -63.35,-80.95 -54.51,-116.04 5.97,-23.72 24.22,-138.3 32.05,-147.65 17.05,-20.36 58.73,-16.66 101.49,-81.09 55.96,-84.35 16.74,-37.36 92.95,-89.16 47.67,-32.39 76.87,-48.31 52.94,-112.27 -16.39,-43.77 -35.73,-85.83 -86.28,-84.84 -171,3.33 -203.49,-108.64 -438.6,26.26 -71.07,40.78 -141.84,105.91 -185.02,175.79 -58.97,95.46 -113.9,132.33 -104.16,257.09zm1045.35 1250.57l25.32 -16.24c17.83,15.81 23.55,32.5 21.62,55.45l-29.18 11.16c-6.19,-8.82 -18.13,-40.53 -17.76,-50.37zm-2.9 -261.77c-14.96,-39.65 -36.03,-184.01 -42.77,-232.73 -8.31,-60.06 -18.8,-178.28 34.79,-222.41 32.41,-14.56 130.82,70.04 169.38,85.72 38.01,15.48 49.06,0.95 72.3,6.27 -0.54,23.36 -65.58,64.05 -88.31,64.81 -40.76,1.39 -84.86,2.11 -115.85,36.07 -25.06,27.48 -5.65,34.94 -1.98,56.23 2.53,14.64 -5.19,51.64 -7.77,68.52 -2.79,18.2 -17.07,132.28 -19.79,137.52zm865.8 -520.55c-18.46,-37.56 49.18,-164.44 73.81,-199.12 22.93,-32.27 105.76,-136.1 136.67,-144.41 0.49,44.73 -172.1,311.78 -210.48,343.53zm-139 -624.33c-62.13,-20.14 -228.72,-136.32 -217.13,-203.99 125.28,-14.12 292.34,147.54 486.6,196.01 28.59,7.14 190.46,26.75 196.16,31.33l2.6 4.71c-206.97,115.24 -118.54,88.68 -219.72,44.49 -73.78,-32.24 -168.86,-46.74 -248.51,-72.55zm192.58 -53.89c-81.2,-31.72 -364.91,-187.65 -433.1,-161.55 -32.33,74.76 194.47,265.29 247.05,315.9 49.85,48 105.64,92.49 122.93,162.62 15.59,63.24 4.82,60.22 -17.01,113.37 -7.09,17.26 -28.01,93.7 -39.37,98.44 -1.45,-1.15 -80.33,-209.53 -106.13,-247.71 -44.52,-65.84 -102.08,-142.65 -163.97,-192.68 -118.5,-95.81 -174.27,-149.96 -324.34,-210.82 -21.89,-8.88 -134.23,-37.74 -137.44,-40.17 0.22,-3.63 41.31,-73.11 47.73,-90.72 12.81,-35.23 23.07,-75.04 31.07,-111.7 14.43,-66.21 -5.05,-58.93 45.78,-97.12 30.04,-22.55 19.06,-82.88 11.08,-114.29 -18.53,-72.95 -65.42,-123.68 -135.88,-149.49 -46.79,-17.15 -204.09,-19.66 -230.31,16.46 15.84,11.57 131.83,-6.31 199.53,30.23 36.07,19.45 48.65,52.86 -5.99,33.7 -52.47,-18.38 -35.4,32.08 -80.81,6.15 -57.63,-32.92 -131.05,-30.27 -195.3,-35.33 -16.95,-1.33 -185.59,9.07 -194.99,12.75 69.46,19.44 190.36,-5.55 323,65.62 151.09,81.08 104.53,194 144.98,244.67l37.23 4.77c-15.93,78.66 -55.45,100.91 -121.56,135.01 -40.01,20.66 -133.04,92.8 -99.98,145.33 13.39,-10.24 39.45,-81.81 89.83,-69.44 6.14,40.98 -17.16,123.62 28.39,163.97l32.8 -35.47c48.94,18.63 63.25,29.93 122.44,44.77 29.06,7.3 106.06,35.36 125.34,37.49 -23.46,-12.52 -140.8,-106.59 -125.17,-140.45 34.5,-16.97 161.42,85.33 186.89,114.31 28.38,32.3 109.25,151.7 114.63,188.63l-90.3 -114.94c15.21,40.66 72.05,113.62 95.35,171.22 20.47,50.61 55.04,180.21 29.32,226.82l-32.29 -21.11c-31.43,48.11 -11.35,97.1 -51.45,146.73 -17.28,21.39 -96.56,82.77 -123.03,72.03l83.41 -215.94c-29.23,47.67 -63.46,129.4 -113.47,157.35 -35.77,19.98 -78.36,10.85 -116.55,5.83 -58.66,-7.7 -82.09,26.19 -103.44,23.49 -16.9,-24.68 -15.95,-108.79 -7.89,-138.13 17.68,-64.31 -24.04,-89.47 6.16,-111.22l10.26 28.33c16.11,-40.89 35.77,-112.41 4.17,-150.07 -20.37,11.18 -46.53,36.87 -70.02,20.08 3.91,-21.87 56.96,-38.54 64.47,-116.79 5.93,-61.52 -18.61,-88.94 -39.06,-134.38 7.67,106.1 54.9,124.48 -52.97,188.66 -28.77,17.11 -131.03,116.04 -114.74,150.14 24.91,9.06 62.52,-49.52 116.49,-1.45 1.18,19.19 -26.03,51.59 -31.18,71.91 -11.08,43.73 33.1,35.12 51.21,50.2 20.39,94.96 -11.08,260.99 8.12,372.8 12.41,72.24 18.81,93.01 13.39,168.49 -1.81,25.15 -26.05,156.3 -25.41,160.47 25.35,25.03 20.55,-9.12 39.38,39.87 8.84,22.99 22.37,22.53 29.79,46.28 -56.37,42.18 -29.08,-36.51 -106.35,-19.83 -17.74,3.84 -41.66,15.51 -54.59,28.86 -9.38,9.69 -9.6,17.14 -20.74,23.19 -16.04,8.7 -13.47,-3.96 -28.06,11.24 -36.37,50.16 53.86,133.23 78.14,168.55 -38.94,2.86 -107.85,-4.11 -139.78,-24.62 -10.71,-6.88 -80,-71.85 -83.44,-79.19 26.44,54.2 93.43,88.15 120.59,133.04 36.15,59.75 136.94,54.76 196.66,45.55 106.57,-16.44 96.86,-46.47 164.7,-92.61 35.48,-24.14 38.44,-35.06 54.47,-72.5 14.74,-34.48 52.61,-17.74 29.05,-83.43 -18.75,-52.31 -85.15,-127.24 -44.34,-181.58 36.46,-48.56 96.16,-272.34 172.88,-334.43 69.88,-56.54 80.45,-119.15 107.47,-145.53 26.39,3.68 114.85,156.13 128.21,186.39 113.32,256.89 43.97,593.45 21.14,848.19 37.91,-72.82 77.49,-397.56 86.51,-497.49 20.67,-229.16 26.98,-250.28 147.25,-443.93 74.91,-120.64 164.82,-233.17 236.17,-354.46 81.4,-138.38 49.2,-184.19 75.1,-213.9 23.14,-26.52 49.09,-50.76 81.02,-66.06 91.37,-43.79 31.42,-29.7 56.18,-81.84 28.05,-20.83 60.46,-0.11 91.29,-28.14 13.89,-12.61 46.44,-46.12 40.25,-63.13 -1.74,0.14 -90.88,36.32 -105.65,41.2 -65.3,21.59 -64.37,15.56 -131.11,12.03 -76.15,-4 -181.09,-21.77 -252.09,-49.49zm2202.69 139.17c1.84,1.44 2.07,3.73 0.68,6.92 -1.37,3.18 -3.19,6.74 -5.5,10.65 -2.28,3.88 -4.55,7.61 -6.86,11.16 -2.28,3.54 -3.88,6.02 -4.8,7.45 -28.39,39.69 -58.41,78.33 -90.01,115.9 -31.59,37.55 -63.42,75.13 -95.49,112.7 -34.81,39.7 -69.85,78.86 -105.11,117.5 -35.26,38.63 -70.78,77.46 -106.5,116.43 -46.71,50.35 -93.88,99.97 -141.52,148.88 -47.62,48.92 -95.28,98.19 -142.91,147.79 -7.31,7.81 -14.89,15.61 -22.67,23.42 -7.78,7.79 -15.34,15.59 -22.68,23.4 63.21,-34.75 127.32,-67.36 192.39,-97.85 0.7,-0.53 2.57,-1.58 5.63,-3.13l3.3 -1.66c5.04,-2.48 10.74,-4.94 17.16,-7.43 6.43,-2.48 12.37,-4.6 17.87,-6.39 5.5,-1.75 9.16,-2.29 10.99,-1.59 1.84,0.71 0.68,2.3 -3.43,4.78 -4.13,2.5 -8.48,5.5 -13.06,9.04 -16.48,11.35 -33.22,22.17 -50.14,32.43 -11.44,6.93 -22.77,13.96 -33.99,21.06l-16.17 10.32c-24.72,14.9 -49.01,29.78 -72.83,44.67 -23.81,14.89 -47.63,30.46 -71.45,46.78 -9.15,5.66 -18.08,11.69 -26.8,18.07 -8.68,6.39 -17.61,12.76 -26.79,19.14 -7.33,4.97 -15.11,9.23 -23.35,12.77 -8.24,3.53 -17.43,3.89 -27.49,1.06 -17.39,-4.26 -26.56,-12.77 -27.48,-25.52 -0.92,-9.92 2.51,-20.58 10.31,-31.89 7.81,-11.35 14.87,-20.92 21.29,-28.72 50.4,-61.68 104.91,-122.99 163.52,-183.97 45.81,-47.5 88.62,-92.69 128.47,-135.58 39.85,-42.89 81.76,-87 125.74,-132.38 36.65,-38.28 73.5,-76.21 110.61,-113.78 37.1,-37.56 75.34,-74.79 114.73,-111.65 27.48,-25.52 54.71,-51.38 81.74,-77.62 27.05,-26.23 55.67,-51.03 85.89,-74.43 0.92,-0.72 3.67,-2.84 8.23,-6.37 4.62,-3.56 9.4,-7.28 14.44,-11.2 5.05,-3.88 9.85,-6.9 14.42,-9.02 4.6,-2.14 7.79,-2.82 9.62,-2.14zm476.8 -6.37c0.92,0.71 0.71,2.83 -0.68,6.37 -1.36,3.56 -3.2,7.28 -5.49,11.16 -2.27,3.92 -4.57,7.64 -6.87,11.2 -2.28,3.53 -3.9,6.01 -4.82,7.43 -26.53,39.69 -55.87,78.35 -87.93,115.9 -32.05,37.57 -64.12,75.15 -96.18,112.72 -34.81,39.7 -69.83,78.86 -105.13,117.5 -35.24,38.63 -71.2,77.44 -107.85,116.43 -55.88,60.26 -111.97,120.34 -168.3,180.24 -56.37,59.91 -115.22,118.92 -176.59,177.05 9.17,-4.96 19.92,-10.82 32.29,-17.54 12.37,-6.75 22.22,-11.87 29.55,-15.41 25.64,-14.2 53.81,-28.37 84.49,-42.56 30.69,-14.17 59.79,-26.93 87.28,-38.28 1.82,-1.41 6.64,-3.53 14.42,-6.38 7.77,-2.82 12.12,-3.54 13.04,-2.12 -1.84,2.84 -8.71,8.15 -20.6,15.95 -11.91,7.81 -25.21,16.13 -39.85,24.99 -14.67,8.87 -28.84,17.38 -42.6,25.51 -13.75,8.16 -22.88,13.66 -27.5,16.48 -24.72,14.9 -50.81,31.93 -78.31,51.07 -27.48,19.12 -53.13,36.83 -76.93,53.15 -11.92,7.8 -21.06,14.02 -27.48,18.62 -6.42,4.59 -16.49,9.74 -30.23,15.41 -20.17,5.66 -37.11,3.18 -50.84,-7.45 -7.35,-7.09 -9.4,-15.76 -6.18,-26.05 3.2,-10.29 6.63,-19.31 10.29,-27.1 9.17,-17.03 22.45,-36 39.84,-56.89 17.42,-20.91 32.99,-39.18 46.74,-54.77 -33.91,24.1 -72.38,49.44 -115.42,76.04 -43.07,26.57 -83.85,51.22 -122.3,73.88 -5.5,3.54 -12.14,7.46 -19.94,11.71 -7.78,4.26 -15.57,7.79 -23.35,10.63 -7.79,2.84 -15.81,4.26 -24.05,4.26 -8.25,0 -16.03,-2.14 -23.35,-6.39 -10.07,-6.38 -15.34,-14.53 -15.81,-24.45 -0.44,-9.93 1.15,-19.14 4.82,-27.65 13.73,-31.89 32.03,-61.14 54.96,-87.73 4.41,-5.13 8.89,-10.16 13.41,-15.1 16.43,-17.98 33.53,-34.72 51.3,-50.24l8.1 -6.97c25.65,-21.61 50.63,-40.41 74.9,-56.35 24.27,-15.95 44.66,-28.89 61.16,-38.82 17.38,-9.21 37.53,-18.97 60.45,-29.23 22.9,-10.28 47.17,-19.51 72.81,-27.65 25.66,-8.15 51.53,-14.18 77.64,-18.08 26.11,-3.9 50.62,-3.71 73.53,0.55 27.48,-29.09 52.89,-56.73 76.24,-82.96 23.37,-26.24 48.78,-53.52 76.26,-81.87 37.55,-38.29 74.88,-76.21 111.97,-113.78 37.11,-37.58 74.88,-74.79 113.4,-111.66 26.55,-26.23 53.78,-52.28 81.75,-78.16 27.91,-25.87 57.02,-50.5 87.24,-73.88 0.92,-0.72 3.67,-3.03 8.25,-6.93 4.57,-3.89 9.37,-7.62 14.43,-11.17 5.04,-3.54 9.86,-6.55 14.41,-9.04 4.6,-2.48 7.81,-3.01 9.61,-1.59zm-1040.14 897.47c33.9,-19.85 69.6,-40.05 107.17,-60.61 37.56,-20.56 75.12,-42.9 112.68,-67 37.55,-24.08 73.95,-50.69 109.23,-79.75 35.27,-29.05 68.01,-61.66 98.23,-97.81 -19.22,-0.72 -39.59,1.93 -61.13,7.96 -21.51,6.02 -42.37,13.83 -62.51,23.4 -20.17,9.57 -38.92,19.67 -56.35,30.3 -17.4,10.63 -32.05,19.86 -43.98,27.64 -9.15,5.68 -22.44,16.14 -39.82,31.38 -17.41,15.25 -36.2,32.8 -56.35,52.63 -20.14,19.85 -40.08,41.3 -59.78,64.34 -19.68,23.03 -35.48,45.54 -47.39,67.52zm2149.02 -51.04c0.9,0.7 0.44,1.76 -1.37,3.2 -4.62,2.82 -9.42,5.31 -14.44,7.43 -5.05,2.14 -9.85,4.26 -14.42,6.39l-36.55 12.39c-23.54,8.03 -47.09,16.11 -70.65,24.29 -35.72,12.41 -71.45,24.65 -107.15,36.68 -53.15,17.02 -106.28,33.5 -159.4,49.45 -53.13,15.94 -106.72,31.36 -160.76,46.24 -86.13,24.84 -172.9,48.22 -260.4,70.2 -87.48,21.96 -176.55,38.63 -267.24,49.97 -15.59,2.14 -33.45,3.88 -53.59,5.32 -20.14,1.42 -40.08,1.06 -59.79,-1.06 -19.68,-2.12 -37.08,-6.91 -52.22,-14.36 -15.08,-7.43 -24.48,-19.31 -28.15,-35.62 -4.58,-17 -0.93,-34.2 10.99,-51.58 11.93,-17.36 23.37,-33.12 34.34,-47.32 32.99,-40.41 68.7,-79.21 107.2,-116.43 38.47,-37.21 77.4,-73.89 116.79,-110.07 78.78,-73.01 158.7,-144.44 239.77,-214.24 81.08,-69.84 163.74,-139.5 248.03,-208.96 81.52,-68.04 163.5,-134.68 245.95,-199.9 33.9,-26.94 67.8,-53.7 101.66,-80.28 33.92,-26.59 68.7,-52.28 104.44,-77.11 0.91,-0.71 4.37,-3.01 10.32,-6.91 5.94,-3.9 12.56,-7.98 19.91,-12.24 7.32,-4.24 13.96,-7.6 19.93,-10.1 5.94,-2.46 9.37,-2.65 10.31,-0.53 1.84,2.86 1.14,6.22 -2.06,10.1 -3.23,3.92 -5.74,6.93 -7.54,9.05 -31.18,38.98 -65.52,76.39 -103.09,112.18 -37.55,35.81 -75.1,71.07 -112.67,105.8 -76.93,73.03 -154.57,144.63 -232.9,214.8 -78.32,70.18 -157.33,140.72 -237.02,211.61 -41.21,36.87 -81.98,73.37 -122.3,109.52 -40.3,36.15 -81.06,73.02 -122.29,110.6 -21.06,18.43 -41.47,37.04 -61.14,55.82 -19.7,18.8 -39.15,37.76 -58.39,56.88 -19.24,18.43 -38.02,37.23 -56.35,56.35 -18.32,19.15 -34.79,39.01 -49.46,59.57 57.74,0 114.27,-4.81 169.7,-14.38 55.4,-9.55 110.6,-19.65 165.57,-30.3 54.98,-10.63 109.24,-22.13 162.83,-34.54 53.59,-12.43 107.85,-24.65 162.82,-36.7 74.21,-17 148.16,-35.09 221.91,-54.21 73.75,-19.14 147.7,-36.87 221.91,-53.17 0.91,0 5.5,-1.06 13.75,-3.2l12.45 -3.12 13.66 -3.25c9.13,-2.12 17.38,-3.73 24.74,-4.79 7.31,-1.06 11.44,-0.89 12.36,0.53zm298.18 -119.09c1.83,-1.42 6.63,-3.54 14.41,-6.39 7.81,-2.84 12.14,-3.54 13.06,-2.12 0,0.71 0,1.24 0,1.59 0,0.35 -1.37,1.59 -4.13,3.72 -19.31,13.73 -38.85,26.95 -58.61,39.66 -14.9,9.58 -29.95,18.87 -45.11,27.85 -35.26,20.92 -70.31,42.71 -105.13,65.41 -14.65,9.93 -32.73,22.68 -54.29,38.29 -21.5,15.6 -39.16,28.35 -52.89,38.28 -5.49,3.54 -11.68,7.25 -18.54,11.16 -6.89,3.9 -14.2,7.09 -21.98,9.57 -7.81,2.46 -15.57,3.37 -23.36,2.65 -7.81,-0.72 -15.79,-3.9 -24.04,-9.57 -7.33,-5.66 -9.87,-13.47 -7.58,-23.38 2.31,-9.93 5.74,-18.8 10.32,-26.59 3.54,-6.86 7.84,-14.08 12.91,-21.63 4.69,-7.01 10.04,-14.31 16.02,-21.9 4.24,-5.37 8.8,-10.88 13.66,-16.54 19.24,-22.35 40.97,-45.22 65.25,-68.6 24.29,-23.4 49.48,-46.25 75.59,-68.59 26.12,-22.32 50.61,-42.33 73.51,-60.07 22.89,-17.73 42.59,-32.27 59.1,-43.59 16.49,-11.35 27.46,-17.74 32.97,-19.14 6.42,-2.14 11.44,-2.49 15.12,-1.06 1.82,0.69 3.42,1.76 4.81,3.18 1.36,1.42 1.12,3.54 -0.68,6.39 -11.93,17.01 -26.11,35.43 -42.61,55.28 -16.49,19.86 -34.35,40.59 -53.57,62.21 -19.25,21.6 -39.16,43.96 -59.8,66.98 -20.62,23.04 -40.53,46.63 -59.78,70.72 8.25,-4.95 19.25,-11.16 32.97,-18.59 13.75,-7.47 24.77,-13.31 33.02,-17.57 26.56,-13.45 52.67,-26.75 78.31,-39.87 24.36,-12.46 49.96,-24.43 76.79,-35.92l4.28 -1.82zm153.87 -320.07c2.76,5.65 3,11.52 0.69,17.53 -2.28,6.04 -5.94,11.71 -10.99,17.03 -5.02,5.31 -10.74,10.1 -17.16,14.35 -6.41,4.26 -12.83,7.44 -19.25,9.57 -5.51,2.12 -12.13,3.71 -19.91,4.79 -7.78,1.06 -15.34,1.42 -22.68,1.06 -7.31,-0.36 -14.2,-1.61 -20.62,-3.73 -6.41,-2.12 -10.98,-6.03 -13.72,-11.69 -5.5,-11.35 -3.68,-22.15 5.47,-32.44 9.18,-10.29 19.69,-17.89 31.61,-22.85 5.51,-2.85 12.36,-5.14 20.61,-6.92 8.26,-1.78 16.73,-2.65 25.43,-2.65 8.71,0 16.72,1.06 24.03,3.18 7.34,2.14 12.85,6.39 16.49,12.77zm567.5 -394.52c4.59,2.13 1.63,11.35 -8.93,27.67 -10.52,16.3 -26.09,37.21 -46.72,62.74 -20.6,25.52 -44.64,54.4 -72.12,86.65 -27.48,32.27 -55.9,65.04 -85.21,98.36 -29.32,33.32 -58.62,66.1 -87.91,98.36 -29.32,32.26 -55.89,61.33 -79.72,87.19 -23.82,25.89 -43.51,47.32 -59.08,64.33 -15.57,17.02 -24.74,26.95 -27.5,29.79 -3.64,4.25 -9.85,10.8 -18.53,19.67 -8.7,8.86 -18.78,19.3 -30.23,31.36 -11.44,12.05 -23.81,24.99 -37.1,38.82 -13.28,13.81 -26.79,27.82 -40.54,41.99 36.63,-26.23 70.54,-48.02 101.68,-65.39 31.15,-17.38 59.1,-30.83 83.82,-40.4 24.72,-9.57 45.81,-15.78 63.19,-18.62 17.43,-2.83 30.27,-2.83 38.5,0 11.9,3.54 17.62,10.99 17.18,22.34 -0.48,11.34 -2.52,21.26 -6.19,29.78 -12.84,29.77 -33.45,61.48 -61.85,95.16 -28.37,33.67 -59.97,65.39 -94.79,95.18 0.92,-0.71 1.61,-1.09 2.06,-1.09 0.45,0 1.14,-0.34 2.05,-1.06 27.49,-12.05 53.6,-24.08 78.32,-36.15 14.4,-7.01 29.76,-14.65 46.05,-22.87 11.66,-5.89 23.8,-12.09 36.41,-18.59 1.84,-0.7 6.39,-2.48 13.73,-5.32 7.33,-2.83 11.45,-3.54 12.37,-2.13 -21.08,19.86 -46.25,38.64 -75.58,56.35 -9.89,6 -19.7,11.83 -29.4,17.49 -19,11.11 -37.59,21.59 -55.78,31.44 -38.48,20.56 -78.32,40.22 -119.55,59.02 -41.21,18.78 -85.66,33.49 -133.29,44.13 -7.31,1.4 -15.56,2.83 -24.73,4.24 -9.16,1.41 -18.09,2.85 -26.79,4.25 -8.7,1.42 -16.51,2.32 -23.37,2.67 -6.86,0.34 -11.66,0.18 -14.43,-0.53 -7.31,-1.42 -11.88,-4.6 -13.74,-9.57 -1.82,-4.98 -0.43,-9.58 4.13,-13.83 1.86,-2.12 8.02,-5.32 18.54,-9.57 10.55,-4.26 18.1,-7.1 22.68,-8.5 43.97,-17.02 84.74,-38.11 122.3,-63.27 37.55,-25.17 75.57,-54.78 114.05,-88.81 10.05,-10.63 20.85,-22.49 32.29,-35.61 11.45,-13.11 22.67,-26.24 33.66,-39.35 10.97,-13.09 21.29,-26.23 30.91,-39.33 9.62,-13.12 17.66,-25.36 24.04,-36.69 -30.23,7.79 -63.4,22.15 -99.61,43.07 -36.17,20.92 -71.69,43.77 -106.47,68.57 -34.82,24.83 -66.87,49.82 -96.22,74.96 -29.29,25.18 -52.21,46.28 -68.7,63.29 -12.8,12.05 -28.15,27.28 -46.02,45.72 -17.86,18.43 -32.29,34.03 -43.27,46.78 -5.5,6.39 -13.05,10.29 -22.68,11.71 -9.62,1.4 -17.16,0.71 -22.66,-2.14 -15.58,-8.49 -18.79,-19.48 -9.64,-32.95 23.81,-31.91 50.17,-64.52 79.02,-97.83 18.53,-21.4 36.77,-42.21 54.73,-62.43 10.02,-11.27 19.94,-22.37 29.77,-33.28l1.22 -1.36 140.32 -155.48c47.64,-52.81 96.18,-104.75 145.64,-155.78 49.46,-51.04 98.94,-100.84 148.4,-149.41 49.48,-48.55 100.31,-97.63 152.51,-147.27 14.67,-12.75 28.87,-25.34 42.61,-37.73 13.74,-12.43 27.95,-24.65 42.58,-36.7 2.75,-2.12 6.66,-5.31 11.68,-9.57 5.05,-4.24 10.32,-8.34 15.82,-12.22 5.47,-3.9 10.54,-7.09 15.09,-9.59 4.61,-2.48 8.25,-3.35 11,-2.66zm134.67 701.82c1.82,1.42 -0.92,5.32 -8.23,11.69 -7.34,6.39 -15.84,13.48 -25.44,21.28 -9.62,7.81 -19.02,15.06 -28.18,21.79l-4.68 3.45 -11.8 8.77c-36.63,24.83 -74.2,49.1 -112.66,72.86 -38.48,23.74 -80.62,45.53 -126.43,65.39 -21.96,9.92 -44.88,18.96 -68.71,27.11 -23.81,8.17 -48.53,12.58 -74.19,13.3 -21.99,0 -41.46,-5.51 -58.41,-16.48 -16.92,-10.99 -24.03,-25.7 -21.29,-44.13 4.71,-34.59 17.82,-66.36 39.31,-95.24 3.61,-4.85 7.46,-9.6 11.54,-14.3 9.91,-11.38 20.23,-22.54 30.93,-33.5 19.93,-20.42 41.21,-40.09 63.86,-59 17.41,-14.17 35.73,-27.46 55,-39.87 19.22,-12.41 39.37,-24.3 60.45,-35.62 20.12,-11.35 41.21,-21.45 63.19,-30.3 21.98,-8.89 44.89,-16.14 68.7,-21.81 11,-2.84 22.93,-4.43 35.73,-4.79 12.84,-0.35 24.73,1.61 35.72,5.87 21.98,9.91 32.08,23.55 30.23,40.93 -1.83,17.35 -10.52,35.26 -26.11,53.68 -7.33,7.8 -14.64,15.25 -21.98,22.34 -7.33,7.1 -15.11,14.17 -23.35,21.26 -32.99,27.64 -70.07,51.04 -111.3,70.18 -29.32,12.75 -58.63,23.93 -87.93,33.5 -29.32,9.59 -62.76,18.25 -100.33,26.06 -20.14,20.55 -34.81,43.23 -43.96,68.05 26.58,0 55.89,-4.79 87.94,-14.36 32.06,-9.56 64.13,-21.62 96.19,-36.15 32.05,-14.53 63.65,-29.77 94.81,-45.73l0.95 -0.49c30.78,-15.76 58.86,-29.94 84.24,-42.57 1.84,-0.7 7.77,-3.9 17.86,-9.57 10.09,-5.67 20.84,-11.86 32.28,-18.61 11.48,-6.74 21.98,-12.58 31.6,-17.55 9.65,-4.96 14.45,-7.44 14.45,-7.44zm-351.76 57.41c-9.17,7.81 -16.27,14.54 -21.31,20.2 -5.03,5.69 -10.76,12.07 -17.18,19.15 31.15,-6.38 61.62,-15.76 91.4,-28.17 29.75,-12.39 57.22,-27.13 82.42,-44.13 25.2,-17.02 47.66,-36.15 67.33,-57.43 19.69,-21.26 35.04,-44.3 46.03,-69.1 -48.54,17.71 -92.5,40.75 -131.89,69.1 -39.41,28.37 -78.31,58.49 -116.8,90.38zm673.26 -40.4c0.94,1.43 -2.74,4.97 -10.97,10.63 -8.25,5.69 -17.86,12.23 -28.87,19.67 -10.99,7.45 -21.96,14.54 -32.97,21.28 -6.76,4.14 -12.11,7.54 -16.12,10.21 -2.47,1.65 -4.44,3.04 -5.86,4.13 -14.67,8.51 -29.1,17.21 -43.28,26.08 -14.17,8.85 -28.61,17.53 -43.28,26.05 -21.98,14.16 -43.07,28.33 -63.21,42.52 -20.14,14.17 -40.31,29.06 -60.48,44.66 -6.39,4.97 -12.56,9.76 -18.55,14.36 -5.94,4.59 -12.56,8.69 -19.9,12.22 -12.83,5.67 -26.11,6.2 -39.86,1.6 -13.74,-4.6 -21.06,-12.94 -21.98,-24.98 -1.83,-11.35 1.17,-22.69 8.93,-34.03 7.81,-11.35 15.35,-21.27 22.68,-29.78 21.07,-26.95 43.07,-53 65.95,-78.16 22.9,-25.15 44.43,-51.2 64.58,-78.15 3.65,-4.26 4.34,-9.58 2.08,-15.95 -2.29,-6.38 -4.37,-12.41 -6.19,-18.08 -30.23,21.27 -64.6,43.07 -103.08,65.39 -12.8,7.43 -25.35,14.6 -37.65,21.53 -24.64,13.89 -48.28,26.73 -70.89,38.55 -33.89,17.72 -62.98,31.55 -87.25,41.49 -24.29,9.91 -37.33,13.81 -39.16,11.69 -0.92,-1.43 6.19,-6.75 21.29,-15.94 15.13,-9.23 34.13,-20.92 57.03,-35.11l5.08 -3.15 70.49 -43.64c27.49,-17.01 53.39,-34.02 77.63,-51.04 24.28,-17.01 45.14,-32.95 62.54,-47.84 17.38,-14.89 27.49,-27.29 30.22,-37.22 -0.92,-12.05 -0.69,-25.52 0.7,-40.41 1.37,-14.89 8.45,-28.01 21.3,-39.36 11,-9.2 24.25,-13.81 39.84,-13.81 15.56,0 27.03,6.38 34.34,19.16 7.33,12.75 7.81,24.99 1.39,36.68 -6.43,11.69 -13.32,22.85 -20.61,33.5 -1.86,3.53 -3.68,6.71 -5.5,9.55 -1.86,2.84 -2.76,6.39 -2.76,10.65 1.84,9.91 5.27,19.31 10.32,28.17 5.03,8.85 10.74,18.25 17.16,28.18 7.33,14.17 9.4,27.48 6.2,39.87 -3.21,12.41 -10.75,24.63 -22.68,36.68 -11,12.07 -22.46,24.29 -34.34,36.68 -11.92,12.41 -23.36,24.65 -34.35,36.71 21.04,-10.65 41.66,-21.64 61.8,-32.97 20.17,-11.35 40.78,-22.35 61.84,-32.98 2.76,-1.41 10.54,-5.47 23.37,-12.22 12.83,-6.74 26.79,-13.46 41.9,-20.21l10.77 -4.8 29.76 -13.28c11.92,-5.31 18.78,-6.9 20.6,-4.78z"/>
 </g>
</svg>
